HIERARCHY
ROOT root
{
	OFFSET 0.000000 0.000000 0.000000
	CHANNELS 6 Xposition Yposition Zposition Zrotation Yrotation Xrotation
	JOINT lhip
	{
		OFFSET 0.058581 -0.082280 -0.017664
		CHANNELS 3 Zrotation Yrotation Xrotation
		JOINT lknee
		{
			OFFSET 0.043451 -0.386469 0.008037
			CHANNELS 3 Zrotation Yrotation Xrotation
			JOINT lankle
			{
				OFFSET -0.014790 -0.426874 -0.037428
				CHANNELS 3 Zrotation Yrotation Xrotation
				JOINT ltoe
				{
					OFFSET 0.041054 -0.060286 0.122042
					CHANNELS 3 Zrotation Yrotation Xrotation
					End Site
					{
						OFFSET 0.000000 0.000000 0.000000
					}
				}
			}
		}
	}
	JOINT rhip
	{
		OFFSET -0.060310 -0.090513 -0.013543
		CHANNELS 3 Zrotation Yrotation Xrotation
		JOINT rknee
		{
			OFFSET -0.043257 -0.383688 -0.004843
			CHANNELS 3 Zrotation Yrotation Xrotation
			JOINT rankle
			{
				OFFSET 0.019056 -0.420046 -0.034562
				CHANNELS 3 Zrotation Yrotation Xrotation
				JOINT rtoe
				{
					OFFSET -0.034840 -0.062106 0.130323
					CHANNELS 3 Zrotation Yrotation Xrotation
					End Site
					{
						OFFSET 0.000000 0.000000 0.000000
					}
				}
			}
		}
	}
	JOINT lowerback
	{
		OFFSET 0.004439 0.124404 -0.038385
		CHANNELS 3 Zrotation Yrotation Xrotation
		JOINT upperback
		{
			OFFSET 0.004488 0.137956 0.026820
			CHANNELS 3 Zrotation Yrotation Xrotation
			JOINT chest
			{
				OFFSET -0.002265 0.056032 0.002855
				CHANNELS 3 Zrotation Yrotation Xrotation
				JOINT lowerneck
				{
					OFFSET -0.013390 0.211636 -0.033468
					CHANNELS 3 Zrotation Yrotation Xrotation
					JOINT upperneck
					{
						OFFSET 0.010113 0.088937 0.050410
						CHANNELS 3 Zrotation Yrotation Xrotation
						End Site
						{
							OFFSET 0.000000 0.000000 0.000000
						}
					}
				}
				JOINT lclavicle
				{
					OFFSET 0.071702 0.114000 -0.018898
					CHANNELS 3 Zrotation Yrotation Xrotation
					JOINT lshoulder
					{
						OFFSET 0.122921 0.045205 -0.019046
						CHANNELS 3 Zrotation Yrotation Xrotation
						JOINT lelbow
						{
							OFFSET 0.255332 -0.015649 -0.022946
							CHANNELS 3 Zrotation Yrotation Xrotation
							JOINT lwrist
							{
								OFFSET 0.265709 0.012698 -0.007375
								CHANNELS 3 Zrotation Yrotation Xrotation
								End Site
								{
									OFFSET 0.000000 0.000000 0.000000
								}
							}
						}
					}
				}
				JOINT rclavicle
				{
					OFFSET -0.082954 0.112472 -0.023707
					CHANNELS 3 Zrotation Yrotation Xrotation
					JOINT rshoulder
					{
						OFFSET -0.113228 0.046853 -0.008472
						CHANNELS 3 Zrotation Yrotation Xrotation
						JOINT relbow
						{
							OFFSET -0.260127 -0.014369 -0.031269
							CHANNELS 3 Zrotation Yrotation Xrotation
							JOINT rwrist
							{
								OFFSET -0.269108 0.006794 -0.006027
								CHANNELS 3 Zrotation Yrotation Xrotation
								End Site
								{
									OFFSET 0.000000 0.000000 0.000000
								}
							}
						}
					}
				}
			}
		}
	}
}
MOTION
Frames: 7
Frame Time: 0.033333
-0.102849 -1.429465 0.983546 176.028133 2.178086 114.006792 2.834522 4.147744 -23.904760 -1.718006 5.130470 -1.611450 -0.680016 13.756976 -6.937754 0.000000 -0.000000 0.000000 -7.951067 -0.976487 -33.700735 -1.185040 -17.862944 16.772321 3.483108 -9.259040 -6.848605 0.000000 -0.000000 0.000000 -2.945894 -1.520929 -31.670138 5.219787 -5.019272 19.857890 1.558212 0.368044 -6.088261 -7.637442 3.195429 -2.874015 3.205360 9.346884 -4.076112 -30.977410 -2.895341 0.784477 -60.351419 -1.193145 17.484172 11.796587 -28.057491 -13.584457 -0.669772 -11.951648 2.176438 26.412583 9.038647 5.109280 50.169439 10.287376 9.654676 -7.811064 11.940423 -23.617869 -5.210960 15.196937 -12.251537 
-0.105864 -1.421467 0.983035 172.335069 2.468953 111.484463 5.644362 -1.726475 -20.098713 -2.698864 12.525494 -1.037813 0.708168 15.874739 -7.896534 0.000000 -0.000000 0.000000 -8.483007 -1.330477 -32.643277 -0.532939 -14.758722 19.368952 4.421679 -7.040218 -7.583364 0.000000 -0.000000 0.000000 -3.283821 2.625877 -29.136598 4.479999 -4.362686 17.880778 0.594432 -0.276629 -5.466170 -7.857880 5.368864 -1.374113 4.445678 11.002596 -4.281032 -28.733708 -4.479617 1.909927 -61.009269 -0.540104 17.680106 11.695799 -26.831643 -10.690584 -1.450172 -13.240544 -0.710743 26.618831 8.625546 4.204037 52.001990 8.014622 8.688232 -9.247667 12.396671 -24.320053 -3.653071 15.316245 -10.830737 
-0.109553 -1.423058 0.983010 172.248233 3.086363 110.717620 5.478205 -0.321833 -19.097514 -2.603140 11.401171 -1.835899 0.489560 15.458268 -8.047664 0.000000 -0.000000 0.000000 -8.718235 -1.414827 -32.773993 0.088031 -13.670610 21.203607 5.165631 -6.360062 -8.956178 0.000000 -0.000000 0.000000 -2.153243 2.010151 -27.442213 4.234087 -4.405935 15.960578 0.534122 -0.014861 -4.252076 -8.275264 8.421731 -1.324922 4.485535 13.807484 -3.370073 -28.013296 -4.995725 1.664631 -61.033930 -0.640491 17.425163 11.356636 -25.539655 -8.970780 -1.548268 -13.530474 -0.940863 26.486524 8.732255 4.478970 51.961787 8.568022 7.823529 -8.960678 11.949171 -24.565275 -3.830506 15.764691 -10.776399 
-0.112588 -1.424081 0.982155 173.033018 3.678429 110.968344 4.734171 2.556411 -19.450529 -2.166025 8.081375 -2.256101 0.473243 14.660266 -7.806929 0.000000 -0.000000 0.000000 -8.806526 -1.420874 -32.577746 0.081634 -12.947814 20.432849 5.222757 -6.482786 -10.908779 0.000000 -0.000000 0.000000 -0.637282 0.875340 -27.359307 3.964988 -4.379944 14.038716 0.199395 0.154058 -3.081052 -8.592261 13.047240 -0.826627 4.439456 18.954651 -1.488379 -26.937825 -5.408786 1.709459 -61.247982 -0.582768 16.847193 12.183795 -24.013745 -6.609889 -1.836823 -12.666378 -0.335944 25.700024 7.990945 4.606735 52.877494 8.352450 7.224822 -8.856879 11.915641 -24.161987 -3.361621 15.945236 -12.367959 
-0.113069 -1.423405 0.981849 173.205795 3.593894 111.063921 4.708574 2.398738 -19.523310 -2.243988 7.937665 -2.160695 0.461851 14.662755 -7.647402 0.000000 -0.000000 0.000000 -8.906704 -1.499802 -32.053667 -0.294313 -13.057315 19.022534 5.071891 -6.988895 -11.206589 0.000000 -0.000000 0.000000 -0.644444 0.789584 -27.559598 3.876339 -4.530001 13.533928 0.199514 0.199926 -2.773860 -8.738193 14.537977 -0.447581 4.572636 20.770278 -1.146245 -26.626492 -5.277348 1.611782 -61.315787 -0.691297 16.912937 12.174043 -23.182848 -6.065071 -0.680299 -12.528299 -0.622850 25.422752 7.619622 4.587544 53.244352 8.110971 7.421418 -8.823305 12.003028 -23.963731 -3.654248 15.968633 -12.882099 
-0.113495 -1.421550 0.981060 173.218364 3.251613 111.138507 4.256268 2.241891 -19.468934 -2.111222 7.695624 -2.140645 0.316671 14.768418 -7.750468 0.000000 -0.000000 0.000000 -9.134219 -1.839363 -30.735279 -1.020739 -13.604347 15.743261 4.870128 -7.745425 -10.981945 0.000000 -0.000000 0.000000 -0.636594 0.922924 -27.894987 3.539644 -4.549593 12.931772 0.092031 0.327114 -2.559747 -9.071002 17.642870 0.320345 4.856088 24.095943 -0.923219 -26.531115 -4.805171 1.175895 -60.787484 -0.698609 16.922367 12.144013 -21.880736 -6.143031 2.295593 -13.728565 -2.471772 25.248562 6.815363 4.550471 53.560583 7.516584 7.733840 -8.417633 12.150806 -23.366349 -5.229568 16.466115 -13.361480 
-0.112008 -1.419800 0.979452 173.137302 2.916892 111.484862 3.953895 2.179565 -19.809350 -1.997329 7.795956 -1.977762 0.216256 14.702152 -7.793752 0.000000 -0.000000 0.000000 -9.113452 -2.118441 -29.643887 -1.542789 -14.602946 12.125716 4.944970 -8.032732 -7.741561 0.000000 -0.000000 0.000000 -0.758480 1.295187 -28.928444 3.285841 -4.492447 13.004307 -0.136621 0.578621 -2.788015 -9.031029 20.612384 1.317022 5.220211 26.711542 -0.570554 -26.112946 -4.373543 1.355641 -60.681173 -1.225026 16.052815 13.295032 -21.245201 -8.436160 1.301699 -12.794634 -3.282484 24.755447 6.040810 5.586844 54.420016 7.580573 7.232194 -8.784565 12.121149 -23.116341 -4.866678 16.001267 -12.496498 
